<svg xmlns="http://www.w3.org/2000/svg" xml:space="preserve" viewBox="0 0 1008 1024"><path fill="#eab308" d="M1007.8 481h.9q.4 31.4.3 63.5-.5.7-1.6.2-.4-1-.4-1.7l.4-.2q.7-1.8.7-3.2zM5.4 558.8q-.1 0 0-.6.6-.7.7-1.6v-5.1l-.2-18c0-20.7-1.2-41.6.6-62.2 1.9-22.5 6.6-44.7 10.2-67q1.6-9 3.6-18.4c1.5-5.1 2.5-10 4.2-14.7 6.5-18.2 12.7-36.7 20-54.6q19.9-48 49.5-91a479 479 0 0 1 68.6-80.7 478 478 0 0 1 107.5-78.7 506 506 0 0 1 69.1-30.8c22-7.7 44.2-14.8 67-19Q429.7 12.3 453 9q14-2 28.6-3.6h9.6q2 .1 4.4-.1l31.7.1 13 1q15.2 2 30 3.8a496.1 496.1 0 0 1 151 46q33.8 17.3 65.6 37.7c14.1 9 26.6 20.5 39.7 31 5 4 4.1 10.5-2 13-3 1.4-6.3 2.2-9.4 3.2-17 5.2-34.2 9.8-51 15.7a26 26 0 0 1-24.3-3.1 715 715 0 0 0-53.9-31.1c-13.8-7-28.6-12.6-43.4-17.4C626 99.6 609 95.4 592 91a197 197 0 0 0-21.6-4q-16.5-2.4-33-4c-5.4-.5-10.9-.2-16.8-.3h-34.8c-13 1-25.8 1.5-38.4 3.4a412.5 412.5 0 0 0-177.9 69.2 702 702 0 0 0-38.3 29.4c-3.9 3.1-6.7 7.6-10 11.4l-.3-.1c-6.2 5-12.6 9.6-17.8 15.2a539 539 0 0 0-42.5 51.4 431 431 0 0 0-67.5 146c-2 8.3-3.3 16.8-5 25.7q0 1.4-.4 2.5-.5 1-.6 2.5 0 1.4-.2 2.6v1.5q0 .8-.2 1.6l-.6 2.1q0 .6-.2 1v2.2q-1.3 4.4-1.7 8.4c-1.1 13.4-2.6 26.8-2.9 40.2-.3 15 .3 30 1 44.9q.4 13.6 2.3 27.3c1.4 10 3.6 19.8 5.5 29.7 4.2 21.2 9.4 42.1 18 62.4 5 12 9.6 23.7 14.7 35.2a370 370 0 0 0 40.4 68c4.4 6 6 11.8 2 18.9q-12.9 24.1-25.5 48.5c-5.6 10.7-11.2 11.6-19.4 2.8l-1.6-1.8a696 696 0 0 1-47-71.1 455 455 0 0 1-35.5-77.3q-9.5-28.3-17.3-57.2c-3.1-11.6-4.7-23.7-7-35.5l-3.7-19.3q0-1.4.2-2.8-1.4-6.7-3-12.9M899.1 672.7q-.1 0 .4-.4 1.5-2.2 2.8-4.5 2.2-3.5 3.4-6.8 3.3-10.9 6.4-22.2-.1-.4.4-.7 1.9-6.9 3.2-13.4-.1 0 .4 0 .7-3 1-6-.2-.5.6-1.5 1-1.4 1.4-2.4 0-.4.2-.9l.8-3.1q0-.4.3-.8.6-2.1.9-4.4 0-.8.3-1.6c4-9.4 5.4-19.1 5.5-29.4 1.4-9 3.3-17.4 3.7-25.9.8-19.3 2.2-38.7.7-57.9a452.6 452.6 0 0 0-38.9-156.7 430 430 0 0 0-46.6-77.6 16.5 16.5 0 0 1-1.6-19l7.8-15.6q10.2-19.9 21-40.1 2.4-1.3 4.3-1.7c6-.6 8.5 4 11.3 7.8q12.2 15.5 23.3 31.7c11.7 17.7 23.9 35.3 33.9 54 10.7 20 19.9 41 28.2 62.1a367 367 0 0 1 20.2 69.2c3.8 21 8.9 41.8 10.6 63.5l.9 5.2.2 10q-.2 6.2 0 11.8.3 9.3.8 19.1c0 1 0 1.6-.2 2.7a4597.2 4597.2 0 0 0 .3 26q0-.2-.3 0-1.3 1.4-1.6 2.7c-2.4 18.2-4.1 36.6-7.2 54.7q-4.4 26.4-11.1 52a380 380 0 0 1-27.5 73.8q-14.6 28.7-30.7 56.5a479.2 479.2 0 0 1-171.4 166.4q-21.5 12.1-43.8 22.6c-12.3 5.8-25.2 10.2-37.9 15.4q-4.9 2.1-10 4.5-5.6 2.3-10.6 4.6 0 .2-.8.2-5.4.7-10.5 1.5l-4 1.8-1.8.4-.5 1.2-.5-.2q-1-.3-2-.2-.6.4-1.3.7-5 1.2-9.6 2-.5-.1-1.3.2c-16.2 2.8-32 6-48 8.3a392 392 0 0 1-44.5 4.5c-30.9.8-61.9 1.2-92.5-4.5-1.5-.3-3.2.4-4.8.6q-1.4.1-3.5-.5c-1.1-.7-1.7-1-2.7-1.4l-4.8-.4-2.1-.6c-.8 0-1.2 0-2-.3-15.6-4-31.1-7-46.1-11.7a693 693 0 0 1-55.5-19.5A351 351 0 0 1 274 958a1208 1208 0 0 1-60.8-37c-10.5-7-20.2-15.3-29.8-23.4-2.5-2-5-5.8-4.9-8.6.1-3.6 3.8-5.8 7.7-6.7q8.5-2 16.8-4.4c14.7-4 29.7-7.4 44-12.5a23 23 0 0 1 22.8 3.3q33 23 70 38.9a452 452 0 0 0 80.5 26c29.2 6.7 58.8 8.7 88.6 9.3 19.7.3 39-1.8 58.6-4.6q37.8-5.5 74-17.8a417 417 0 0 0 69.6-31q48.5-27 88.2-65.5a468 468 0 0 0 31-33.1c8.2-9.8 15.2-20.5 23-31q2.2-2.4 3.7-4.5 16.7-28.6 32.9-57.5c2.8-5.2 4.2-11.1 6.5-17q.3-1.3.4-2.1h.3c3.5-1.3 3.3-3.6 2-6.1"/><path fill="#eab308" d="M681.6 696c7.2.5 11.9 4.2 16.6 8.8q32.3 31.9 65 63.5c3.5 3.4 5.3 7.3 3.4 12-2 4.6-6.2 5-10.5 5h-1.5l-174-.2h-151q-2.4.1-5 0c-6.3-.8-9.2-6-6.1-11.6q3.2-5.6 7.4-10.5 23.3-29.3 46.7-58.5c4.5-5.5 10-8.7 17.6-8.7q95.3.2 191.4.2M674 610.6h-96q-4.5 0-8.9-.2c-9.2-.7-13-7.9-7.5-15.4 6.3-8.6 13.2-16.6 19.8-25l70.4-88.6L682 443q1.5-2 3.3-3.7c3-3 6.5-5 10.7-3 4.2 2.2 7 5.5 7 10.7v109.8q.1 20 .6 40c0 7.6-5.5 13.4-13.2 13.6q-7.9.2-16.5.1"/><path fill="#eab308" d="M853 760c-7.5 10.4-14.5 21.1-22.7 30.9a468 468 0 0 1-31 33 416 416 0 0 1-88.2 65.7 417 417 0 0 1-143.6 48.7c-19.5 2.8-39 5-58.6 4.6-29.8-.6-59.4-2.6-88.6-9.2a452 452 0 0 1-80.4-26.1 394 394 0 0 1-70.1-38.9c-7.2-5-14-6.4-22.8-3.3-14.3 5-29.3 8.4-44 12.5q-8.3 2.4-16.8 4.4c-4 .9-7.6 3-7.7 6.7 0 2.8 2.4 6.6 4.9 8.6 9.6 8.1 19.3 16.5 29.8 23.3A1208 1208 0 0 0 274 958a351 351 0 0 0 42.1 20.5 693 693 0 0 0 55.5 19.5c15 4.6 30.5 7.7 46.1 12q.4.7.3.8-16.5-3.4-33-7c-28.6-6.9-56-17.1-82.8-29.2a467 467 0 0 1-70.6-38.7c-17.3-11.7-33.7-24.7-50.4-37.3-3.4-2.6-5.9-6.2-4.9-10.8s4.8-6 9-7.3q34-9.4 68-19.2c5-1.4 9.8.2 14 3.2 28.3 20.4 59 36.2 91.6 48.6q41.9 16.1 86.2 23 40.5 5.9 81.4 4.5c14.8-.5 29.6-2.7 44.3-4.8a415.8 415.8 0 0 0 190-81.5 436 436 0 0 0 74.7-73.1c5.7-7 10.7-14.4 16.4-21.7q1 .3 1.1.5M427 677q-19.4 24.7-39.2 49.5-20.2 25-40 50.3a19 19 0 0 1-16.8 8.5c-27.8-.3-55.7 0-83.5 0-4.2 0-8.1-.3-10.2-4.5-2.3-4.5-.4-8.4 2.4-12l46-57.1 38.7-48.8 45.1-56.4 59-74.2 56.3-70.5 59.1-74 83.5-104.4q15.7-20 31.9-39.7c2.3-2.8 6-4.4 9.4-6.3q.4.5.1 1c-2.3 1.8-4.9 3-6.5 5q-14.2 17.3-28.2 34.8-12 15.6-24.1 31.1c-7.6 9.5-15.6 18.6-23.2 28Q567 362.2 547.5 387c-10.3 13-21 25.8-31.3 38.8q-16.9 21.6-33.7 43.2-14.4 17.9-28.9 35.6l-33.7 42-42 52.6q-17.4 22.2-34.8 44.2-19.5 24-38.8 48.2l-40.5 51.2c-7.4 9.2-15.2 18.1-22.3 27.5-1.8 2.5-3 6.8-2.2 9.6.5 1.7 5.3 2.3 8.2 3.2q1 .2 2 0 39.7-.2 79.4.2c8 .1 13.3-2.8 18-8.6q28.4-36 57.2-71.7 10.7-13 22-26zM456 237.4h121.5c2.4 0 5 0 7.3 1a8 8 0 0 1 3.1 12q-18.8 24.2-37.8 48.2-9 11-17.8 22.2c-5 6.5-11.8 9-19.6 9h-184c-7.4 0-13.6-3.2-19-8.5l-66.1-65.2q-1.9-1.6-3.3-3.7c-2-3.1-3.6-6.3-1.6-10.2 2-4 5.4-5.1 9.4-5.2h27q72.3 0 144.4.3zm71.8 1.8L438 239h-86c-8.8 0-17.6.8-26.4.8-8.3 0-16.6-.6-25-.8-5.4 0-10.9.5-16.4.4-12 0-24-.6-35.9-.3-2.7.1-6.3 2.2-7.5 4.5-1 2 .6 5.5 1.7 8 .6 1.7 2.3 2.9 3.6 4.1l21 20q22.4 22.1 44.4 44.6A25 25 0 0 0 330 328h181.9c7.7 0 14.3-2.4 19.3-8.6l35.5-44.4q9.6-11.9 18.7-24c4-5.4 1.7-10-4.8-11.2q-3.9-.8-7.9-.8-21.7.1-44.8.1M521 82.9c5.4 0 11-.3 16.3.2q16.5 1.6 33 4 11 1.3 21.6 4c17 4.3 34 8.5 50.7 14a309 309 0 0 1 43.4 17.4 715 715 0 0 1 54 31c8 5 15.1 6.4 24.2 3.2 16.8-5.9 34-10.5 51-15.7q4.8-1.3 9.4-3.1c6.1-2.6 7-9 2-13.1-13.1-10.5-25.6-22-39.7-31a749 749 0 0 0-65.6-37.6 496 496 0 0 0-151-46c-9.9-1.4-19.8-2.5-30-4.2l-.3-1c20.4 2.7 41 4.7 61.3 8.3 27.6 5 54.3 13.2 80.5 23.2a499 499 0 0 1 79 38.3 494 494 0 0 1 67.7 48.4c6.1 6.7 4.4 14.2-4.2 17.2-7.8 2.8-15.7 5-23.7 7.4q-20.7 6.2-41.3 12.6-9 3-16.5-2.7a411.7 411.7 0 0 0-169-68.3c-17.2-2.7-34.8-3.3-52.5-5.4zM481.2 5.3Q467 7 453 8.9q-23.4 3.4-46.7 7.5c-23 4.2-45 11.3-67 19A506 506 0 0 0 198.8 113c-12.6 10-24.5 21-36.3 32A479 479 0 0 0 94 225.7a486 486 0 0 0-49.4 91C37.2 334.4 31 353 24.5 371.1c-1.7 4.7-2.7 9.6-4.2 14.3l-.3-2.6q0-.6.3-2l.7-2.5 1-3.4q.8-2 1-3.2c3.7-11.8 7-23.8 11.4-35.4a529 529 0 0 1 33-71.9 528 528 0 0 1 58.2-83.7q37.8-44.7 84.8-79.1 40.4-30 86-51 38.4-17.9 79.3-29.2 32.8-9 66.6-13.4c11.6-1.5 23.2-2.6 35.6-3.7z"/><path fill="#eab308" d="M665.8 991.8q4.8-2.4 9.7-4.5c12.7-5.2 25.6-9.6 37.9-15.4q22.4-10.5 43.8-22.6 38.4-21.6 72-50.2a479 479 0 0 0 99.4-116.2 1140 1140 0 0 0 30.7-56.5c12-23.5 20.7-48.4 27.5-73.8q6.8-25.6 11.1-52c3.1-18.1 4.8-36.5 7.2-54.7q.3-1.4 1.6-2.7.4.3.4 1.6a426 426 0 0 1-8.8 67.4c-3.7 15.3-6 31-10.6 46a648 648 0 0 1-19.1 52.6 491 491 0 0 1-52 94.8 466 466 0 0 1-71.5 82.1A508.5 508.5 0 0 1 680 988q-5.9 2.2-13 4zM8.1 574.8l3.8 19c2.2 11.8 3.8 23.9 6.9 35.5A917 917 0 0 0 36 686.5c9.2 27 21.4 52.5 35.5 77.3 14 24.8 30 48.2 47 71q.7 1 1.6 2c8.2 8.7 13.8 7.8 19.4-2.9q12.6-24.4 25.6-48.5c3.9-7 2.3-12.8-2.1-18.8a370 370 0 0 1-40.4-68 721 721 0 0 1-14.4-35.2q.9-.5 1.2-.4a417 417 0 0 0 37.5 76.2q9.3 14.5 19.2 28.6c3.8 5.4 4.6 10.6 1.4 16.6-9.5 17.9-18.6 36-28.2 53.7-4.7 8.7-13.7 9.5-19.3 1.5-14.8-21-29.9-41.8-43.6-63.5-19-30-33.3-62.2-45-95.7a454 454 0 0 1-18.8-71.9q-2.8-14.7-5.3-30.4zM427.3 676.9q-.5.2-1-.2 3.4-5.8 7.4-10.8l49.8-61.1 42-52.6q18-22.4 35.9-44.7l36-45.2 50.7-62.9q19.3-24.1 38.5-48.4l42-51.9q7.1-8.6 14.7-17h.9q-4.7 6.4-9.5 12.7L656 393.1q-33.1 41.1-66.4 82.2-33.7 42.1-67.4 84.4l-48 59.3q-23.1 28.8-46.9 57.9M872.8 182l-20.6 39.9q-3.7 7.7-7.8 15.6-5.4 9.9 1.6 19c18 24.4 34 50 46.6 77.6a453 453 0 0 1 39 156.7c1.4 19.2 0 38.6-.8 57.9-.4 8.5-2.3 17-3.9 25.9q-.6.5-.8.4c3-23.5 5-47.2 3.7-70.9q-1.7-29.7-6-59.2c-4-29.6-12.3-58.2-23-86.2-13.7-36-33-69-55.8-100-5.3-7.3-6.7-14-2.3-22.5 9.3-17.7 18-35.8 27.5-54zM324.2 581.2l-1.8 2.9c-3 4.6-6.9 7.8-12.7 6.8-4.8-.9-8.6-6.8-8.7-13.2 0-6.6 1-13.2 1-19.9q-.1-48-.4-95.9.1-16 .4-32c0-7 4.7-14.2 14.3-14.1q59.5.4 118.9 0 7 0 10.3 5.7c2.1 3.7.3 7-2 10q-5.7 7.8-12.1 15.4-.7 0-.6-.5c3.6-5 7.4-9.5 10.3-14.5 1.6-2.7 2.7-6.6 2-9.6-.8-3.6-4.7-4.4-8.5-4.4L316 418c-7.7 0-12 4.4-12 12q0 30.3-.2 60.5-.4 40.2-1 80.4c0 3.8 0 7.9 1.4 11.3 1 2.7 4 5.7 6.7 6.4 2.3.5 5.6-2 8.1-3.5 1.8-1 3.1-2.9 4.7-4.2q.3.1.4.3"/><path fill="#eab308" d="M873.1 181.8q-1.3.2-2.6.2c6-6.3 9.3-6.9 15-.7a211 211 0 0 1 19.1 24.2c13.2 19.4 26.6 38.8 38.6 59 15 25 26.8 51.8 36 79.5 6 17.9 11.7 36 16 54.3 4.3 19.1 6.8 38.7 10 58q1 5.4 1.1 11.3-.9.5-1.3.4c-1.7-21.3-6.8-42.1-10.6-63.1a367 367 0 0 0-20.2-69.2Q962 304 946 273.7c-10-18.8-22.2-36.4-33.9-54-7.2-11-15.3-21.4-23.3-31.8-2.8-3.7-5.4-8.4-11.3-7.8q-2 .5-4.4 1.7M221.4 196c3-3.6 5.8-8 9.7-11.2a420.5 420.5 0 0 1 172.2-90.1 417 417 0 0 1 44-8.5c12.6-1.9 25.3-2.5 38.4-3.2q.5.8.4 1L466 86c-26.9 2.2-53 7.8-78.9 15.3a403 403 0 0 0-84.5 36c-23 13-45 27.6-65 45zM88 434c1.7-8.5 3-17 5-25.4a430.9 430.9 0 0 1 67.5-146c13-18.1 27.5-35 42.5-51.3 5.2-5.6 11.6-10.2 17.8-15.2-7.8 8.5-16.2 16.7-24.2 25.3A404 404 0 0 0 132 313c-8.5 16.9-16.5 34.1-23.1 51.8-6.2 16.5-10.3 33.8-15.2 50.8-1.6 5.9-2.8 11.9-4.7 18.1q-.8.4-1 .3"/><path fill="#eab308" d="M88 434.4q.3-.5.8-.4c-1.2 12.8-3.3 25.5-4 38.3-1 15.4-1 30.8-1 46.1q-.2 12 .4 24 3 53.4 19.6 104.5 2.6 7.7 5.6 15.8-.3.4-1 .3A286 286 0 0 1 90 601q-3.2-15-5.5-29.8-1.9-13.6-2.4-27.3c-.6-15-1.2-30-.9-45 .3-13.3 1.8-26.7 2.9-40.1.2-2.8 1-5.4 1.7-8.7l.2-2.1.2-1 .6-2.1.1-3q0-1 .3-2.8l.7-2.3zM635 1001l2 .3c-9.4 2.7-19 5.8-28.9 7.5-19.8 3.4-39.8 7-59.8 8.7a513 513 0 0 1-60.7 1.3c-18-.7-36-3.5-54.5-5.6 1.3-.5 3-1.2 4.5-1 30.6 5.8 61.6 5.4 92.5 4.6 15-.4 29.8-2.4 44.6-4.5 15.9-2.3 31.7-5.5 48.2-8.3h1.2l9.6-2.3q1.2-.3 1.3-.7M19.7 383.2q.4.7.4 2.5-1.8 9.6-3.4 18.6c-3.6 22.3-8.3 44.5-10.2 67-1.8 20.6-.6 41.5-.6 62.3l.1 18.3v2.1q0 1-.2 2.6-.6.5-.7.4c-.7-21-2.2-41.9-1.8-62.7q.8-44.8 11.2-88.5zM853.3 759.9q-.6 0-1.1-.6a527 527 0 0 0 38.3-67.3q2.5-5.6 5.4-11.3.4.3.3.5c-2 5.6-3.5 11.5-6.3 16.7q-16.2 28.9-33 57.5-1.4 2.1-3.6 4.5M669 238.1v-.7q6.2-.5 12.3-.5h78.3c7.8 0 12.6 4.7 11 11-.5 2.5-2.6 4.6-4.4 6.9q-.6 0-.5-.5l1.2-2.6c4-7 1.7-12-6.4-12.8q-8.9-1-17.7-.8zM418.2 463.2a2559 2559 0 0 1-31.8 39.7q-.7 0-.6-.5 9.8-13.4 19.7-26 5.9-7 12.3-13.6zM348.2 551.2Q336.6 566 324.5 581q-.4.3-.6-.5 5.1-8 10.7-15.2 6.3-7.4 13.2-14.5zM1006.9 516.8V514c0-5.3.2-9.7 0-14.2q-.2-8.4-.8-16.7l-.2-9.8q.5-1.6.8-2.3.2 4.7.9 9.8.4 29.6.5 58.8 0 1.5-.7 3.2-.6-7.4-.5-16.7zM926 575.3c0-.3.6-.3.8-.3.2 9.9-1.1 19.6-5.3 28.7q-.5-1-.5-1.7l5-25zM481.6 5.3c-1.3-.2-2.1-.5-3.3-.8q26-.5 52.9-.2-2 .6-4.3.8h-31.7l-4.3.1zM912 639q-3 11-6.3 22-1.2 3.3-3.4 6.8-.4.4-.3-.2v-2.5l2.2-5 .9-2.9q0-.8.8-2.2 1-1.7 1.1-2.9l2.1-6q.8-2 .9-3l.2-.4.9-3.5.2-.1zM380.2 511.2q-6.6 8.2-13.9 16.7-.6 0-.5-.5 7-8.6 14-16.6z"/><path fill="#eab308" d="M366 528q-6.4 9-13.7 17.9-.6 0-.5-.5l13.9-17.7zM431 447q-5.9 8-12.5 16-.5.3-.6-.5 6.4-8.3 12.8-15.8zM486.6 84q-.6-.2-.6-.8 16.9-.4 34.5-.4.6.2.4 1-16.9.4-34.3.3M757.2 266.2a214 214 0 0 1-8.8 10.7q-.7 0-.6-.5 4.5-5.7 9-10.6z"/><path fill="#eab308" d="m766 255-8.5 11q-.5.3-.6-.5 4.3-5.8 8.7-10.9zM5.3 559.2Q7 564.9 8 571.7q-.7.4-1 .3zM527.3 5.3q1.5-.5 4.3-1 4 0 8 .5.5.4.4 1-6.1 0-12.7-.5M638 1000.1l1.9-.2q2.6-.9 4-1.8 4.8-.8 10-1.5-7.2 2.6-15.5 4.4-.5-.7-.4-.9M915.5 625q-1 6.3-3 12.7a3 3 0 0 1-.4-1.6l.1-.6.5-.7q0-.4.5-1.8.6-2 .8-3l.2-1.3.4-.7q.2-1.4.9-3M386 503a92 92 0 0 1-5.5 8q-.5.3-.6-.5 2.9-4.3 5.8-7.8zM665.4 991.8c.6 0 .8 0 1.4.2q-5.2 2.3-11.5 4.4 4.5-2.2 10.1-4.6M898.9 673c1.5 2.2 1.7 4.5-1.8 5.8q.5-2.7 1.8-5.8M744.5 282q-.6 0-1-.3 1.9-2.7 4.2-5l.4.4q-1.5 2.4-3.6 4.9M916.9 619q0 2.6-.9 5.8-.4-.9.2-2.7l.7-1.8-.3-.7q0-.1.3-.6M902 668q-1 2.1-2.4 4.2.1-1.6 1.6-4zM1006.8 470.7l-.8 2.2q-.6-1.8-1-4.5.5-.5 1.3-.4.5 1 .5 2.7M351.2 547.2q-1.1 1.9-2.7 3.9-.5.1-.6-.6 1.5-2.2 3-3.6zM422 1010.7q2 0 4.6.6.6 1 .5 1.1-2.1 0-4.9-.8zM921.3 605.9q-.3 2-1 3.7l-.3-2.6q0-.1.3-.8.8-.4 1-.3"/><path fill="#eab308" d="M7 572.4q.3-.5.8-.4.4 1 .3 2.5-.1 1.6-.6 3.1-.4-2-.5-5.2M911 639.5l-.8 3.2q0-1.1.7-3.2M921.3 605.6q-.2.3-.9.4a12 12 0 0 1 .5-3.7q.2.3.4 1.6zM919 615l-1 2q-.5-.7.1-1.8z"/><path fill="#eab308" d="M919.1 614.8q-.2.3-.8.2-.3-1.7.4-3.8.5-.2.4.3v3.3"/><path fill="#eab308" d="m919.9 607.3.2 2.5q0 .6-.2 1-.6.4-.7.4l-.2-.2zM421.8 1010.6q.2.4.2.9-.8.4-1.9-.3l-.1-1.2zM902 667.6q-.1.5-.7.4 0-1.1.5-2.7.3.7.2 2.3M904.9 657.4q0 .9-.6 2.3 0-.8.6-2.3M906.8 652.4q0 .8-.7 2.3 0-.8.7-2.3M909.8 643.3q0 .8-.5 2.4 0-.8.5-2.4M911.8 636.4q.4.3.3 1.5v1l-.7.1q-.2-1.1.4-2.6M913.8 630.2q0 .9-.5 2.5zM22.8 372.1q0 1-.6 2.6 0-.8.6-2.6"/><path fill="#eab308" d="M419.7 1010q.4.3.2 1-.6.3-1.6 0-.4-.4-.3-.9zM427.4 1012.6q-.4-.5-.4-1.2.9 0 2 .9-.4.5-1.6.3M896.4 681q-.2 0-.3-.6 0-.8.4-1.5.3.7 0 2M925.9 577.1v1.3zM20.8 378.7q0 .5-.3 2 0-.5.3-2M912.6 634.9l-.2.5q-.3-.2.2-.5M914.5 628v.3zM916.6 620.5q.1.3-.3 1.2 0-.2.3-1.2M5 557.3q.3-.4.8-.3.3.4-.4 1-.3 0-.4-.7M637.8 1000.3q.3 0 .2.7t-.5.5q0-.5.3-1.2M352 546q0 .7-.6 1.1-.4.1-.3-.4l.6-1zM491.2 5.4q1.2-.3 3.5-.3-1.2.3-3.5.3M87.6 436.9q.2.6-.4 1.9-.1-.7.4-1.9M86.6 445.1q.1.5-.4 1.7 0-.5.4-1.7M6.2 553.9q-.3-.4-.2-1.6zM85.8 448.2q.3.4.1 1.6 0-.5 0-1.6M86.8 442v.9zM1006 483.5q.6 7.8 1 16.3v13.9q-.6-8.8-1-18.3zM643.6 998q-1.2 1-3.4 1.9 1.2-.9 3.4-1.8M919.1 611.5q.2-.4.7-.5 0 1.2-.5 2.9-.2-.7-.2-2.4M634.8 1001.1q0 .3-.7.6zM624 1003.9h-.7q0-.3.6 0M747.8 276.4l-4.7 5.3-14.5 17.4-42 52q-19.3 24.1-38.5 48.3l-50.7 62.9-36 45.2-36 44.7q-20.9 26.3-42 52.6-24.7 30.6-49.7 61-3.9 5.1-7.7 10.8-11.2 13.3-21.9 26.3L347 774.6c-4.7 5.8-10 8.7-18 8.6-26.5-.4-53-.1-79.4-.1h-2c-3-1-7.7-1.6-8.2-3.3-.7-2.8.4-7 2.2-9.6 7.1-9.4 15-18.3 22.3-27.5l40.5-51.2q19.5-24 38.8-48.2 17.4-22 34.8-44.2l42-52.6 33.7-42q14.5-17.7 28.9-35.6 16.8-21.6 33.7-43.2c10.3-13 21-25.8 31.3-38.8 13.2-16.4 26-33.1 39.3-49.6q11.6-14 23.2-28 12.1-15.5 24.1-31 14-17.7 28.2-35c1.6-2 4.2-3.1 6.5-5q37.1-.3 74-.2 8.9-.1 17.7.8c8 .9 10.4 5.9 6.4 12.8l-1.2 2.6-9 11zM528.3 239.2l44.3-.2q4 0 8 .8c6.4 1.2 8.6 5.8 4.7 11.2q-9.1 12.2-18.7 24l-35.5 44.4c-5 6.2-11.6 8.6-19.3 8.6h-182q-10.4.1-18.3-7.7-22-22.4-44.5-44.6-10.4-10-20.9-20c-1.3-1.2-3-2.4-3.6-4-1-2.6-2.7-6.2-1.7-8.1 1.2-2.3 4.8-4.4 7.5-4.5 12-.3 24 .2 36 .3 5.4 0 11-.5 16.4-.4 8.3.2 16.6.8 24.9.8 8.8 0 17.6-.7 26.4-.8h86q44.8 0 90.3.2"/><path fill="#eab308" d="m351.8 545.4-.8 1.2-3.2 3.8c-4.5 5.2-9 9.9-13.2 15q-5.6 7-10.8 15c-1.6 1.8-2.9 3.7-4.7 4.7-2.5 1.6-5.8 4-8.1 3.5-2.7-.7-5.6-3.7-6.7-6.4-1.4-3.4-1.4-7.5-1.3-11.3q.4-40.2 1-80.4V430c0-7.6 4.4-12 12.1-12h118.5c3.8 0 7.7.7 8.6 4.3.6 3-.5 6.9-2 9.6-3 5-6.8 9.5-10.4 14.5l-13 16c-4.2 4.9-8.5 9.2-12.3 14q-9.9 12.6-19.7 26l-6 8-14 17z"/></svg>